<svg id="レイヤー_1" data-name="レイヤー 1" xmlns="http://www.w3.org/2000/svg" viewBox="0 0 1920 1080"><defs><style>.cls-1{fill:#fff;}</style></defs><path class="cls-1" d="M1465.2,406.93h162.61V314.62H1465.2Z"/><path class="cls-1" d="M0,0V1080H1920V0ZM1778.58,934.83c-7.59,54.13-57.64,104.3-129.19,104.22-320.71-.35-1060.84,0-1381.55-.27-62.18,0-124.25-50.5-126.42-103.95V319.59c0-58.22,65.41-107.51,137-108.59,36.06-.54,281-1.15,317,.39,23.61,1,36.7-8.92,45.18-30,10.77-26.81,22.25-53.42,35.11-79.26,22.29-44.81,57.8-71.3,108.93-71.5q174.42-.68,348.86,0c50,.16,85.25,25.5,107.7,69.1,12,23.25,23.65,47,32,71.74,10.28,30.54,28.2,43.27,60.52,40,25-2.52,261-.5,286.29-.5,98.61,0,147,43.17,158.64,108.6Z"/></svg>